
        <svg xmlns="http://www.w3.org/2000/svg" xmlns:xlink="http://www.w3.org/1999/xlink" version="1.1" width="3162.1621621621625" 
        height="966.7835936916703" viewBox="0 0 3162.1621621621625 966.7835936916703">
			
			<g transform="scale(8.108108108108109) translate(10, 10)">
				<defs id="SvgjsDefs1047"></defs><g id="SvgjsG1048" featureKey="symbolFeature-0" transform="matrix(1.272264532248264,0,0,1.272264532248264,-14.249362518515355,-13.994909854730903)" fill="#ff3131"><path xmlns="http://www.w3.org/2000/svg" d="M29.5,25.5c2.5,0,4.6-2.1,4.6-4.6s-2.1-4.6-4.6-4.6c-2.5,0-4.6,2.1-4.6,4.6S27,25.5,29.5,25.5z M27,58  c0,0.7,0.6,1.3,1.3,1.3c0.7,0,1.3-0.6,1.3-1.3s-0.6-1.3-1.3-1.3C27.6,56.7,27,57.3,27,58z M36.2,31.3c1.1,0,1.9-0.9,1.9-1.9  c0-1.1-0.9-1.9-1.9-1.9c-1.1,0-1.9,0.9-1.9,1.9C34.3,30.4,35.1,31.3,36.2,31.3z M21.1,48.6c2.5,0,4.6-2.1,4.6-4.6  c0-2.5-2.1-4.6-4.6-4.6s-4.6,2.1-4.6,4.6C16.6,46.5,18.6,48.6,21.1,48.6z M14.5,37.8c1.1,0,1.9-0.9,1.9-1.9c0-1.1-0.9-1.9-1.9-1.9  c-1.1,0-1.9,0.9-1.9,1.9C12.6,37,13.4,37.8,14.5,37.8z M13.8,42c0-0.7-0.6-1.3-1.3-1.3c-0.7,0-1.3,0.6-1.3,1.3s0.6,1.3,1.3,1.3  C13.2,43.3,13.8,42.7,13.8,42z M19.9,31.2c1.8,0,3.2-1.4,3.2-3.2s-1.4-3.2-3.2-3.2c-1.8,0-3.2,1.4-3.2,3.2S18.1,31.2,19.9,31.2z   M58.8,13.6c0.7,0,1.3-0.6,1.3-1.3c0-0.7-0.6-1.3-1.3-1.3c-0.7,0-1.3,0.6-1.3,1.3C57.5,13,58.1,13.6,58.8,13.6z M23.8,57.5  c0-3.1-2.5-5.6-5.6-5.6c-3.1,0-5.6,2.5-5.6,5.6s2.5,5.6,5.6,5.6C21.3,63.1,23.8,60.6,23.8,57.5z M79.9,33.9c2.5,0,4.6-2.1,4.6-4.6  s-2.1-4.6-4.6-4.6s-4.6,2.1-4.6,4.6S77.3,33.9,79.9,33.9z M69.6,65.5c0,1.8,1.4,3.2,3.2,3.2c1.8,0,3.2-1.4,3.2-3.2s-1.4-3.2-3.2-3.2  C71,62.3,69.6,63.7,69.6,65.5z M72.8,22.9c1.8,0,3.2-1.4,3.2-3.2c0-1.8-1.4-3.2-3.2-3.2c-1.8,0-3.2,1.4-3.2,3.2  C69.6,21.5,71,22.9,72.8,22.9z M65.7,31.2c1.8,0,3.2-1.4,3.2-3.2s-1.4-3.2-3.2-3.2c-1.8,0-3.2,1.4-3.2,3.2S63.9,31.2,65.7,31.2z   M77.2,42.5c0,3.1,2.5,5.6,5.6,5.6c3.1,0,5.6-2.5,5.6-5.6s-2.5-5.6-5.6-5.6C79.7,36.9,77.2,39.4,77.2,42.5z M74,42  c0-0.7-0.6-1.3-1.3-1.3c-0.7,0-1.3,0.6-1.3,1.3s0.6,1.3,1.3,1.3C73.4,43.3,74,42.7,74,42z M64.8,16.1c1.1,0,1.9-0.9,1.9-1.9  s-0.9-1.9-1.9-1.9c-1.1,0-1.9,0.9-1.9,1.9S63.8,16.1,64.8,16.1z M70.8,37.8c1.1,0,1.9-0.9,1.9-1.9c0-1.1-0.9-1.9-1.9-1.9  s-1.9,0.9-1.9,1.9C68.9,37,69.8,37.8,70.8,37.8z M31.4,34.5c0-1.8-1.4-3.2-3.2-3.2c-1.8,0-3.2,1.4-3.2,3.2s1.4,3.2,3.2,3.2  C30,37.7,31.4,36.3,31.4,34.5z M64.8,68.7c-1.1,0-1.9,0.9-1.9,1.9c0,1.1,0.9,1.9,1.9,1.9c1.1,0,1.9-0.9,1.9-1.9  C66.7,69.6,65.9,68.7,64.8,68.7z M58.3,76.4c-3.1,0-5.6,2.5-5.6,5.6s2.5,5.6,5.6,5.6c3.1,0,5.6-2.5,5.6-5.6S61.4,76.4,58.3,76.4z   M71.5,74.5c-2.5,0-4.6,2.1-4.6,4.6s2.1,4.6,4.6,4.6c2.5,0,4.6-2.1,4.6-4.6S74,74.5,71.5,74.5z M57.5,72.5c0,0.7,0.6,1.3,1.3,1.3  c0.7,0,1.3-0.6,1.3-1.3c0-0.7-0.6-1.3-1.3-1.3C58.1,71.3,57.5,71.8,57.5,72.5z M88.5,56.7c-0.7,0-1.3,0.6-1.3,1.3s0.6,1.3,1.3,1.3  c0.7,0,1.3-0.6,1.3-1.3S89.1,56.7,88.5,56.7z M86.5,62.2c-1.1,0-1.9,0.9-1.9,1.9c0,1.1,0.9,1.9,1.9,1.9c1.1,0,1.9-0.9,1.9-1.9  C88.4,63,87.6,62.2,86.5,62.2z M56.2,25.5c2.5,0,4.6-2.1,4.6-4.6s-2.1-4.6-4.6-4.6s-4.6,2.1-4.6,4.6S53.7,25.5,56.2,25.5z   M79.9,51.4c-2.5,0-4.6,2.1-4.6,4.6c0,2.5,2.1,4.6,4.6,4.6s4.6-2.1,4.6-4.6C84.4,53.5,82.4,51.4,79.9,51.4z M21.1,66.1  c-2.5,0-4.6,2.1-4.6,4.6s2.1,4.6,4.6,4.6s4.6-2.1,4.6-4.6S23.7,66.1,21.1,66.1z M81.1,68.8c-1.8,0-3.2,1.4-3.2,3.2s1.4,3.2,3.2,3.2  c1.8,0,3.2-1.4,3.2-3.2S82.9,68.8,81.1,68.8z M30.2,62.2c-1.1,0-1.9,0.9-1.9,1.9c0,1.1,0.9,1.9,1.9,1.9s1.9-0.9,1.9-1.9  C32.1,63,31.2,62.2,30.2,62.2z M35.3,68.8c-1.8,0-3.2,1.4-3.2,3.2s1.4,3.2,3.2,3.2c1.8,0,3.2-1.4,3.2-3.2S37.1,68.8,35.3,68.8z   M36.2,83.9c-1.1,0-1.9,0.9-1.9,1.9s0.9,1.9,1.9,1.9c1.1,0,1.9-0.9,1.9-1.9S37.2,83.9,36.2,83.9z M28.2,77.1c-1.8,0-3.2,1.4-3.2,3.2  c0,1.8,1.4,3.2,3.2,3.2c1.8,0,3.2-1.4,3.2-3.2C31.4,78.5,30,77.1,28.2,77.1z M41,27.5c0,0.7,0.6,1.3,1.3,1.3c0.7,0,1.3-0.6,1.3-1.3  c0-0.7-0.6-1.3-1.3-1.3C41.5,26.2,41,26.8,41,27.5z M48.3,17.9c0-3.1-2.5-5.6-5.6-5.6c-3.1,0-5.6,2.5-5.6,5.6s2.5,5.6,5.6,5.6  C45.8,23.6,48.3,21.1,48.3,17.9z M42.2,86.4c-0.7,0-1.3,0.6-1.3,1.3c0,0.7,0.6,1.3,1.3,1.3c0.7,0,1.3-0.6,1.3-1.3  C43.5,87,42.9,86.4,42.2,86.4z M44.8,74.5c-2.5,0-4.6,2.1-4.6,4.6s2.1,4.6,4.6,4.6s4.6-2.1,4.6-4.6S47.3,74.5,44.8,74.5z"></path></g><g id="SvgjsG1049" featureKey="nameFeature-0" transform="matrix(1.0575295698732132,0,0,1.0575295698732132,117.37732765508244,7.578681452200328)" fill="#ff3131"><path d="M2.48 40 l0 -28 l7.24 0 l11.52 14.8 l0 -14.8 l7.68 0 l0 28 l-6.8 0 l-11.96 -15.36 l0 15.36 l-7.68 0 z M33.440000000000005 16.4 l0 -5.6 l7.92 0 l0 5.6 l-7.92 0 z M33.6 40 l0 -21.64 l7.6 0 l0 21.64 l-7.6 0 z M45.440000000000005 40 l0 -21.64 l7.6 0 l0 4.36 c1.24 -2.96 3.24 -4.88 6.84 -4.72 l0 8 l-0.64 0 c-3.96 0 -6.2 2.28 -6.2 7.28 l0 6.72 l-7.6 0 z M73.20000000000002 40.52 c-6.92 0 -11.92 -5.08 -11.92 -11.24 l0 -0.08 c0 -6.16 5.04 -11.32 12 -11.32 c6.92 0 11.92 5.08 11.92 11.24 l0 0.08 c0 6.16 -5.04 11.32 -12 11.32 z M73.28000000000002 34.08 c2.76 0 4.52 -2.2 4.52 -4.8 l0 -0.08 c0 -2.64 -1.92 -4.88 -4.6 -4.88 c-2.76 0 -4.52 2.2 -4.52 4.8 l0 0.08 c0 2.64 1.92 4.88 4.6 4.88 z M99.04000000000002 46.480000000000004 c-4.2 0 -7.72 -0.88 -10.84 -2.48 l2.44 -5.04 c2.32 1.28 4.64 2.04 7.56 2.04 c3.8 0 5.68 -1.88 5.68 -5.32 l0 -0.84 c-1.52 1.76 -3.52 3.24 -6.68 3.24 c-5.32 0 -9.6 -3.84 -9.6 -10.04 l0 -0.08 c0 -6.24 4.36 -10.08 9.36 -10.08 c3.24 0 5.16 1.32 6.8 3.04 l0 -2.56 l7.6 0 l0 16.44 c0 3.96 -0.88 6.72 -2.8 8.64 c-1.96 1.96 -5 3.04 -9.52 3.04 z M99.48000000000002 32.24 c2.56 0 4.4 -1.8 4.4 -4.2 l0 -0.08 c0 -2.4 -1.84 -4.16 -4.4 -4.16 c-2.6 0 -4.44 1.8 -4.44 4.2 l0 0.08 c0 2.4 1.84 4.16 4.44 4.16 z M115.44000000000001 16.4 l0 -5.6 l7.92 0 l0 5.6 l-7.92 0 z M115.60000000000001 40 l0 -21.64 l7.6 0 l0 21.64 l-7.6 0 z M149.96 40.48 c-4.96 0 -9.68 -1.56 -13.12 -4.64 l4.32 -5.16 c2.76 2.2 5.84 3.36 9.08 3.36 c2.08 0 3.2 -0.72 3.2 -1.92 l0 -0.08 c0 -1.16 -0.92 -1.8 -4.72 -2.68 c-5.96 -1.36 -10.56 -3.04 -10.56 -8.8 l0 -0.08 c0 -5.2 4.12 -8.96 10.84 -8.96 c4.76 0 8.48 1.28 11.52 3.72 l-3.88 5.48 c-2.56 -1.8 -5.36 -2.76 -7.84 -2.76 c-1.88 0 -2.8 0.8 -2.8 1.8 l0 0.08 c0 1.28 0.96 1.84 4.84 2.72 c6.44 1.4 10.44 3.48 10.44 8.72 l0 0.08 c0 5.72 -4.52 9.12 -11.32 9.12 z M170.80000000000004 40.48 c-4.12 0 -7.28 -2.36 -7.28 -6.68 l0 -0.08 c0 -4.48 3.4 -6.8 8.48 -6.8 c2 0 3.96 0.4 5.2 0.84 l0 -0.36 c0 -2.24 -1.4 -3.52 -4.32 -3.52 c-2.28 0 -4.04 0.44 -5.96 1.2 l-1.56 -5.36 c2.44 -1 5.04 -1.68 8.76 -1.68 c3.88 0 6.52 0.92 8.24 2.64 c1.64 1.6 2.32 3.84 2.32 6.88 l0 12.44 l-7.52 0 l0 -2.24 c-1.48 1.64 -3.52 2.72 -6.36 2.72 z M173.52000000000004 35.72 c2.2 0 3.76 -1.4 3.76 -3.56 l0 -1 c-0.76 -0.32 -1.84 -0.56 -2.96 -0.56 c-2.2 0 -3.48 1.08 -3.48 2.68 l0 0.08 c0 1.48 1.12 2.36 2.68 2.36 z M196.96000000000004 40.44 c-4.56 0 -7.28 -2 -7.28 -7.16 l0 -8.8 l-2.56 0 l0 -6.12 l2.56 0 l0 -5.48 l7.6 0 l0 5.48 l5.04 0 l0 6.12 l-5.04 0 l0 7.32 c0 1.52 0.68 2.16 2.08 2.16 c1 0 1.96 -0.28 2.88 -0.72 l0 5.96 c-1.36 0.76 -3.16 1.24 -5.28 1.24 z M205.60000000000005 40 l0 -29.2 l7.6 0 l0 10.52 c1.4 -1.8 3.4 -3.44 6.48 -3.44 c4.6 0 7.36 3.04 7.36 7.96 l0 14.16 l-7.6 0 l0 -11.72 c0 -2.36 -1.24 -3.64 -3.04 -3.64 c-1.84 0 -3.2 1.28 -3.2 3.64 l0 11.72 l-7.6 0 z M230.96000000000006 16.4 l0 -5.6 l7.92 0 l0 5.6 l-7.92 0 z M231.12000000000006 40 l0 -21.64 l7.6 0 l0 21.64 l-7.6 0 z"></path></g><g id="SvgjsG1050" featureKey="sloganFeature-0" transform="matrix(0.52765018699151,0,0,0.52765018699151,119.73617490650425,68.93962881480795)" fill="#f5eded"><path d="M0.5 6 l1.88 0 l3.08 9.54 l3.66 -9.74 l0.22 0 l3.7 9.74 l3.06 -9.54 l1.9 0 l-4.7 14.2 l-0.22 0 l-3.84 -10 l-3.86 10 l-0.2 0 z M42.5885 18.28 l0.12 1.72 l-8.52 0 l0 -14 l8.12 0 l0.14 1.72 l-6.46 0 l0 3.42 l4.38 0 l0 1.72 l-4.38 0 l0 5.42 l6.6 0 z M79.6055 13 c0 -4.04 3.18 -7.2 7.18 -7.2 c1.68 0 3.28 0.56 4.7 1.64 l-0.9 1.4 c-1.18 -0.9 -2.4 -1.34 -3.8 -1.34 c-3.02 0 -5.38 2.42 -5.38 5.5 s2.38 5.5 5.38 5.5 c1.52 0 2.82 -0.48 3.8 -1.42 l0.92 1.38 c-1.22 1.1 -2.94 1.74 -4.72 1.74 c-4 0 -7.18 -3.18 -7.18 -7.2 z M117.31400000000001 20 l-1.22 -2.84 l-6.24 0 l-1.22 2.84 l-1.92 0 l6.16 -14.2 l0.2 0 l6.16 14.2 l-1.92 0 z M110.574 15.48 l4.8 0 l-2.4 -5.54 z M145.4225 11.06 c0 2.26 -1.06 4.2 -3.24 4.84 l3.02 4.1 l-2.16 0 l-2.86 -3.88 l-3.14 0 l0 3.88 l-1.8 0 l0 -14 l5.28 0 c3.3 0 4.9 2.28 4.9 5.06 z M137.04250000000002 7.68 l0 6.74 l3.4 0 c2.26 0 3.18 -1.66 3.18 -3.36 s-0.92 -3.38 -3.18 -3.38 l-3.4 0 z M170.61100000000002 18.28 l0.12 1.72 l-8.52 0 l0 -14 l8.12 0 l0.14 1.72 l-6.46 0 l0 3.42 l4.38 0 l0 1.72 l-4.38 0 l0 5.42 l6.6 0 z M209.98800000000003 7.720000000000001 l0 4.32 l4.28 0 l0 1.72 l-4.28 0 l0 6.24 l-1.8 0 l0 -14 l7.96 0 l0.12 1.72 l-6.28 0 z M239.47650000000002 20.2 c-4 0 -7.18 -3.2 -7.18 -7.2 s3.18 -7.2 7.18 -7.2 s7.18 3.2 7.18 7.2 s-3.18 7.2 -7.18 7.2 z M239.47650000000002 18.48 c3.04 0 5.32 -2.38 5.32 -5.48 s-2.28 -5.48 -5.32 -5.48 c-3.06 0 -5.34 2.38 -5.34 5.48 s2.28 5.48 5.34 5.48 z M273.685 11.06 c0 2.26 -1.06 4.2 -3.24 4.84 l3.02 4.1 l-2.16 0 l-2.86 -3.88 l-3.14 0 l0 3.88 l-1.8 0 l0 -14 l5.28 0 c3.3 0 4.9 2.28 4.9 5.06 z M265.305 7.68 l0 6.74 l3.4 0 c2.26 0 3.18 -1.66 3.18 -3.36 s-0.92 -3.38 -3.18 -3.38 l-3.4 0 z M321.762 6 l-4.94 7.78 l0 6.22 l-1.8 0 l0 -6.2 l-4.96 -7.8 l2.04 0 l3.82 6.02 l3.8 -6.02 l2.04 0 z M344.5305 20.2 c-4 0 -7.18 -3.2 -7.18 -7.2 s3.18 -7.2 7.18 -7.2 s7.18 3.2 7.18 7.2 s-3.18 7.2 -7.18 7.2 z M344.5305 18.48 c3.04 0 5.32 -2.38 5.32 -5.48 s-2.28 -5.48 -5.32 -5.48 c-3.06 0 -5.34 2.38 -5.34 5.48 s2.28 5.48 5.34 5.48 z M368.41900000000004 14.46 l0 -8.46 l1.8 0 l0 8.32 c0 2.7 1.56 4.08 3.76 4.08 s3.78 -1.38 3.78 -4.08 l0 -8.32 l1.78 0 l0 8.46 c0 3.64 -2.08 5.74 -5.56 5.74 c-3.46 0 -5.56 -2.1 -5.56 -5.74 z"></path></g>
			</g>
		</svg>
	